<svg width="28" height="28" viewBox="0 0 28 28" fill="none" xmlns="http://www.w3.org/2000/svg">
<g id="Icon" clip-path="url(#clip0_371_15310)">
<path id="Vector" d="M7.46683 10.7333H7.70016C8.5985 10.7333 9.3335 11.4683 9.3335 12.3666V20.5333C9.3335 21.4316 8.5985 22.1666 7.70016 22.1666H7.46683C6.5685 22.1666 5.8335 21.4316 5.8335 20.5333V12.3666C5.8335 11.4683 6.5685 10.7333 7.46683 10.7333ZM14.0002 5.83325C14.8985 5.83325 15.6335 6.56825 15.6335 7.46659V20.5333C15.6335 21.4316 14.8985 22.1666 14.0002 22.1666C13.1018 22.1666 12.3668 21.4316 12.3668 20.5333V7.46659C12.3668 6.56825 13.1018 5.83325 14.0002 5.83325ZM20.5335 15.1666C21.4318 15.1666 22.1668 15.9016 22.1668 16.7999V20.5333C22.1668 21.4316 21.4318 22.1666 20.5335 22.1666C19.6352 22.1666 18.9002 21.4316 18.9002 20.5333V16.7999C18.9002 15.9016 19.6352 15.1666 20.5335 15.1666Z" fill="#666D4B" fill-opacity="0.5"/>
</g>
<defs>
<clipPath id="clip0_371_15310">
<rect width="28" height="28" fill="white"/>
</clipPath>
</defs>
</svg>
